<svg width="235" height="124" viewBox="0 0 235 124" fill="none" xmlns="http://www.w3.org/2000/svg">
<path fill-rule="evenodd" clip-rule="evenodd" d="M140.971 71.6772L16.2054 0C2.55914 23.2467 -3.01441 40.6816 1.5845 64.8969C6.1834 89.1122 25.9527 123.014 70.7904 123.982C115.628 124.951 139.996 86.2063 139.996 86.2063C139.996 86.2063 178.986 134.637 213.101 115.265C248.192 90.0808 233.571 47.4619 220.899 26.1525L140.971 71.6772ZM29.8516 41.6502L102.957 83.3005C102.057 83.771 101.16 84.2425 100.267 84.7126C82.76 93.9204 66.3485 102.552 50.321 91.0494C32.7758 78.4574 28.8769 65.8655 29.8516 41.6502ZM204.329 68.7713L178.986 83.3005C184.834 89.1122 194.581 92.018 198.48 90.0808C202.379 88.1435 203.354 84.2691 204.329 79.4261C205.303 74.583 204.329 68.7713 204.329 68.7713Z" fill="#EB1E1E"></path>
</svg>
